<?xml version="1.0" standalone="no"?>
<!DOCTYPE svg PUBLIC "-//W3C//DTD SVG 20010904//EN"
 "http://www.w3.org/TR/2001/REC-SVG-20010904/DTD/svg10.dtd">
<svg version="1.0" xmlns="http://www.w3.org/2000/svg"
 width="640.000000pt" height="640.000000pt" viewBox="0 0 640.000000 640.000000"
 preserveAspectRatio="xMidYMid meet">
<metadata>
Created by potrace 1.11, written by Peter Selinger 2001-2013
</metadata>
<g transform="translate(0.000000,640.000000) scale(0.100000,-0.100000)"
fill="#000000" stroke="none">
<path d="M3137 6203 c-4 -4 -40 -8 -80 -9 -71 -2 -169 -10 -217 -19 -14 -2
-45 -7 -70 -10 -25 -3 -58 -8 -75 -11 -16 -3 -39 -7 -50 -9 -19 -3 -33 -6
-110 -21 -16 -4 -48 -12 -71 -20 -22 -7 -51 -16 -65 -18 -13 -3 -24 -5 -24 -6
0 -1 -11 -3 -24 -6 -14 -2 -30 -9 -38 -15 -7 -6 -13 -9 -13 -5 0 3 -30 -6 -67
-20 -38 -14 -88 -32 -113 -41 -24 -8 -71 -28 -104 -44 -32 -16 -63 -26 -67
-23 -5 3 -9 0 -9 -5 0 -6 -7 -11 -15 -11 -8 0 -15 -4 -15 -9 0 -8 -34 -21 -54
-20 -5 1 -12 -5 -17 -13 -5 -7 -12 -13 -16 -14 -12 -1 -47 -17 -53 -23 -3 -3
-25 -17 -50 -30 -25 -13 -53 -31 -62 -39 -10 -8 -18 -12 -18 -8 0 4 -10 -3
-22 -14 -13 -11 -33 -23 -45 -26 -13 -4 -21 -9 -18 -14 2 -4 -6 -12 -20 -18
-13 -6 -32 -18 -42 -26 -10 -8 -54 -42 -99 -75 -78 -58 -124 -97 -206 -173
-22 -21 -44 -38 -49 -38 -5 0 -9 -3 -9 -8 0 -4 -33 -41 -72 -82 -69 -71 -218
-249 -264 -315 -104 -149 -135 -199 -188 -300 -12 -22 -23 -42 -26 -45 -10
-10 -70 -137 -70 -148 0 -7 -4 -12 -9 -12 -5 0 -12 -12 -16 -27 -3 -15 -17
-52 -31 -81 -13 -29 -24 -56 -24 -61 0 -5 -7 -25 -15 -45 -8 -20 -15 -38 -16
-41 0 -2 -7 -21 -15 -42 -9 -20 -17 -44 -19 -52 -2 -9 -13 -50 -25 -91 -22
-80 -27 -99 -35 -143 -3 -15 -12 -58 -20 -95 -7 -38 -17 -90 -21 -118 -3 -27
-8 -58 -10 -69 -2 -11 -7 -51 -10 -90 -3 -38 -8 -74 -11 -79 -4 -5 -1 -6 5 -2
9 5 9 1 3 -16 -9 -23 -6 -417 3 -488 2 -19 7 -57 11 -85 10 -79 21 -146 41
-245 20 -93 20 -93 39 -160 9 -30 17 -60 19 -67 1 -7 5 -15 8 -19 4 -3 4 -12
1 -20 -3 -8 0 -14 6 -14 7 0 11 -6 10 -12 -1 -7 1 -22 5 -33 4 -11 13 -33 19
-50 7 -16 12 -32 13 -35 0 -3 4 -14 8 -25 4 -11 13 -33 19 -50 6 -16 23 -57
39 -89 15 -33 28 -65 28 -72 0 -6 7 -17 15 -24 9 -7 13 -15 10 -18 -2 -3 4
-19 14 -36 10 -17 33 -58 51 -91 68 -124 75 -136 117 -197 18 -26 33 -51 33
-56 0 -6 4 -12 8 -14 5 -2 26 -28 47 -58 21 -30 44 -59 52 -63 7 -4 13 -15 13
-23 0 -8 4 -12 10 -9 5 3 10 0 10 -7 0 -12 51 -73 115 -139 14 -14 25 -31 25
-37 0 -7 4 -12 10 -12 11 0 70 -56 65 -62 -2 -2 9 -12 26 -23 16 -11 29 -26
29 -32 0 -7 6 -13 13 -13 7 0 23 -10 34 -22 35 -38 101 -98 108 -98 4 0 12 -6
19 -13 8 -6 28 -23 45 -37 17 -14 43 -35 58 -47 16 -13 33 -23 40 -23 6 0 13
-4 15 -9 4 -11 158 -111 171 -111 6 0 7 -3 4 -7 -8 -7 38 -33 59 -33 8 0 14
-4 14 -10 0 -5 4 -10 10 -10 5 0 31 -13 57 -28 60 -35 280 -134 353 -158 30
-11 57 -22 58 -26 2 -5 12 -8 22 -8 9 0 34 -7 54 -15 20 -8 36 -12 36 -9 0 4
6 2 13 -4 6 -5 39 -15 72 -22 33 -7 67 -16 76 -21 8 -4 29 -10 45 -13 16 -2
29 -5 29 -6 0 -1 14 -3 30 -5 17 -2 41 -6 55 -10 14 -3 41 -8 60 -10 19 -3 46
-7 60 -10 115 -21 207 -27 440 -28 198 0 308 5 369 18 13 2 47 7 75 10 70 8
140 20 176 30 8 2 29 7 45 9 17 3 71 17 120 31 50 14 101 28 115 31 13 3 30
10 37 16 7 6 13 7 13 3 0 -4 7 -2 15 5 8 7 15 9 15 5 0 -4 7 -2 15 5 8 6 19 9
25 5 5 -3 10 -1 10 6 0 7 3 9 6 6 4 -4 19 0 33 7 32 16 172 77 186 80 6 1 38
17 72 34 35 18 66 33 70 33 5 1 20 10 35 20 14 10 31 19 37 19 6 0 11 3 11 8
0 4 15 13 33 21 17 8 46 24 62 36 17 12 35 24 40 26 24 10 125 83 125 90 0 5
6 9 13 9 8 0 23 8 35 18 11 10 33 27 47 38 47 34 88 68 129 106 22 20 43 35
48 32 4 -3 8 0 8 5 0 13 119 131 132 131 4 0 8 7 8 15 0 8 7 15 16 15 8 0 13
4 10 9 -8 12 19 33 29 23 5 -4 5 -2 1 5 -4 7 2 18 14 25 11 7 20 16 20 20 0 3
12 20 28 36 32 35 29 32 121 153 39 52 71 100 71 107 0 6 5 12 10 12 6 0 18
16 27 35 9 19 20 35 24 35 4 0 9 8 13 18 5 17 26 52 36 62 5 5 94 174 114 217
6 13 15 23 19 23 5 0 6 4 3 9 -4 5 5 31 18 57 14 27 22 52 20 56 -3 4 -1 8 5
8 5 0 18 27 27 60 9 33 21 60 27 60 6 0 8 3 4 6 -3 3 1 25 10 47 8 23 16 47
17 52 2 6 5 17 8 25 19 56 54 186 64 235 10 51 13 68 18 83 3 9 7 37 10 62 4
25 8 56 11 70 27 150 39 529 22 705 -4 39 -9 88 -11 110 -2 22 -5 40 -6 40 -1
0 -3 16 -5 35 -6 58 -14 102 -27 155 -7 28 -13 58 -14 68 -1 9 -2 18 -4 20 -1
1 -3 9 -5 17 -1 8 -10 39 -19 68 -8 30 -15 57 -14 60 1 4 -4 18 -12 32 -7 14
-13 27 -12 30 2 8 -10 54 -17 65 -3 6 -6 12 -6 15 0 5 -4 14 -50 135 -50 129
-125 283 -204 417 -31 53 -115 183 -121 188 -4 3 -20 25 -37 50 -43 63 -124
162 -220 268 -18 20 -33 40 -33 44 0 4 -5 8 -10 8 -6 0 -41 30 -78 68 -71 70
-131 124 -183 164 -17 12 -39 31 -47 41 -9 9 -22 17 -29 17 -7 0 -13 4 -13 10
0 5 -13 16 -29 25 -16 8 -35 20 -43 28 -7 7 -35 27 -63 44 -27 18 -55 36 -61
40 -36 27 -135 83 -147 83 -5 0 -18 9 -28 21 -9 11 -21 20 -26 20 -14 -1 -93
34 -93 42 0 4 -4 7 -10 7 -5 0 -34 11 -64 25 -97 44 -254 103 -260 97 -3 -3
-6 0 -6 7 0 7 -6 11 -14 8 -7 -3 -23 1 -34 9 -12 8 -25 14 -29 13 -4 -1 -11 0
-15 1 -11 4 -19 6 -53 14 -16 4 -37 10 -45 13 -34 13 -40 15 -255 57 -95 19
-222 33 -368 40 -54 3 -102 8 -108 11 -5 4 -9 2 -9 -3 0 -10 -93 -10 -101 1
-3 4 -9 4 -12 0z"/>
</g>
</svg>
